<svg width="35" height="35" viewBox="0 0 35 35" fill="none" xmlns="http://www.w3.org/2000/svg">
<path id="Vector" d="M17.5428 9.05057C12.7553 9.05057 8.89365 12.9615 8.89365 17.8102C8.89365 22.6588 12.7553 26.5698 17.5428 26.5698C22.3303 26.5698 26.1919 22.6588 26.1919 17.8102C26.1919 12.9615 22.3303 9.05057 17.5428 9.05057ZM17.5428 23.5051C14.449 23.5051 11.9197 20.9511 11.9197 17.8102C11.9197 14.6692 14.4414 12.1153 17.5428 12.1153C20.6441 12.1153 23.1658 14.6692 23.1658 17.8102C23.1658 20.9511 20.6366 23.5051 17.5428 23.5051ZM28.563 8.69226C28.563 9.82819 27.6597 10.7354 26.5457 10.7354C25.4241 10.7354 24.5283 9.82057 24.5283 8.69226C24.5283 7.56396 25.4316 6.64912 26.5457 6.64912C27.6597 6.64912 28.563 7.56396 28.563 8.69226ZM34.2915 10.7659C34.1635 8.029 33.5463 5.60468 31.5665 3.60727C29.5943 1.60987 27.2006 0.984731 24.4982 0.847505C21.713 0.687408 13.365 0.687408 10.5798 0.847505C7.88497 0.977107 5.49122 1.60225 3.51149 3.59965C1.53175 5.59705 0.922022 8.02138 0.786527 10.7583C0.628449 13.579 0.628449 22.0337 0.786527 24.8544C0.914495 27.5913 1.53175 30.0157 3.51149 32.0131C5.49122 34.0105 7.87744 34.6356 10.5798 34.7728C13.365 34.9329 21.713 34.9329 24.4982 34.7728C27.2006 34.6432 29.5943 34.0181 31.5665 32.0131C33.5387 30.0157 34.156 27.5913 34.2915 24.8544C34.4496 22.0337 34.4496 13.5867 34.2915 10.7659ZM30.6933 27.881C30.1062 29.3753 28.9695 30.5265 27.4866 31.1287C25.266 32.0207 19.9967 31.8149 17.5428 31.8149C15.0888 31.8149 9.81201 32.0131 7.59892 31.1287C6.12353 30.5341 4.98688 29.3829 4.3922 27.881C3.51149 25.6321 3.71473 20.2955 3.71473 17.8102C3.71473 15.3249 3.51901 9.98066 4.3922 7.7393C4.97935 6.24506 6.116 5.09389 7.59892 4.49162C9.81954 3.59965 15.0888 3.80549 17.5428 3.80549C19.9967 3.80549 25.2735 3.60727 27.4866 4.49162C28.962 5.08627 30.0987 6.23744 30.6933 7.7393C31.574 9.98829 31.3708 15.3249 31.3708 17.8102C31.3708 20.2955 31.574 25.6397 30.6933 27.881Z" fill="#483221"/>
</svg>
