<svg width="27" height="28" viewBox="0 0 27 28" fill="none" xmlns="http://www.w3.org/2000/svg">
<g clip-path="url(#clip0_191_16)">
<path d="M23.9847 8.81258C24.0017 9.05004 24.0017 9.28755 24.0017 9.52501C24.0017 16.7679 18.489 25.1134 8.41333 25.1134C5.3092 25.1134 2.42562 24.2144 0 22.6539C0.441037 22.7047 0.865053 22.7217 1.32306 22.7217C3.88433 22.7217 6.24213 21.8567 8.12496 20.3809C5.7163 20.33 3.69778 18.7525 3.00231 16.5813C3.34158 16.6322 3.68081 16.6661 4.03705 16.6661C4.52894 16.6661 5.02089 16.5983 5.47884 16.4796C2.96842 15.9707 1.08554 13.7656 1.08554 11.1025V11.0347C1.8149 11.4418 2.66309 11.6962 3.56202 11.7301C2.0863 10.7463 1.11948 9.06701 1.11948 7.16721C1.11948 6.14949 1.39083 5.21656 1.8658 4.40236C4.56283 7.72698 8.61685 9.89812 13.1627 10.1356C13.0779 9.72854 13.027 9.30452 13.027 8.88045C13.027 5.86112 15.4696 3.40161 18.5058 3.40161C20.0833 3.40161 21.5082 4.06314 22.509 5.13177C23.7472 4.89431 24.9345 4.4363 25.9862 3.80871C25.5791 5.08091 24.714 6.14954 23.5776 6.82799C24.6802 6.70931 25.7488 6.40392 26.7326 5.9799C25.9864 7.06545 25.0534 8.03226 23.9847 8.81258Z" fill="#483221"/>
</g>
<defs>
<clipPath id="clip0_191_16">
<rect width="26.7327" height="26.7327" fill="white" transform="translate(0 0.891113)"/>
</clipPath>
</defs>
</svg>
