<svg width="27" height="28" viewBox="0 0 27 28" fill="none" xmlns="http://www.w3.org/2000/svg">
<rect width="27" height="28" fill="#1E1E1E"/>
<g id="Slide 16:9 - 20">
<rect width="1920" height="1080" transform="translate(-1200 -412)" fill="white"/>
<g id="contacts component">
<g id="Group 5">
<g id="facebook 1" clip-path="url(#clip0_0_1)">
<path id="Vector" d="M26.5828 14.2575C26.5828 7.1044 20.7873 1.30884 13.6342 1.30884C6.48111 1.30884 0.685547 7.1044 0.685547 14.2575C0.685547 20.7203 5.42068 26.0773 11.611 27.0495V18.0006H8.32159V14.2575H11.611V11.4046C11.611 8.15961 13.5428 6.36716 16.5017 6.36716C17.9187 6.36716 19.4005 6.61987 19.4005 6.61987V9.80482H17.7673C16.1592 9.80482 15.6574 10.8031 15.6574 11.827V14.2575H19.2486L18.6742 18.0006H15.6574V27.0495C21.8477 26.0773 26.5828 20.7203 26.5828 14.2575Z" fill="#483221"/>
</g>
</g>
</g>
</g>
<defs>
<clipPath id="clip0_0_1">
<rect width="26.7327" height="26.7327" fill="white" transform="translate(0.267578 0.891113)"/>
</clipPath>
</defs>
</svg>
