<svg width="28" height="31" viewBox="0 0 28 31" fill="none" xmlns="http://www.w3.org/2000/svg">
<g clip-path="url(#clip0_191_20)">
<path d="M14.0057 8.41364C10.2106 8.41364 7.14947 11.4748 7.14947 15.2699C7.14947 19.0649 10.2106 22.1261 14.0057 22.1261C17.8008 22.1261 20.8619 19.0649 20.8619 15.2699C20.8619 11.4748 17.8008 8.41364 14.0057 8.41364ZM14.0057 19.7273C11.5532 19.7273 9.54825 17.7283 9.54825 15.2699C9.54825 12.8114 11.5472 10.8124 14.0057 10.8124C16.4641 10.8124 18.4631 12.8114 18.4631 15.2699C18.4631 17.7283 16.4582 19.7273 14.0057 19.7273ZM22.7415 8.13319C22.7415 9.02229 22.0255 9.73238 21.1424 9.73238C20.2533 9.73238 19.5432 9.01632 19.5432 8.13319C19.5432 7.25006 20.2592 6.534 21.1424 6.534C22.0255 6.534 22.7415 7.25006 22.7415 8.13319ZM27.2825 9.75625C27.1811 7.61405 26.6918 5.71651 25.1224 4.15313C23.559 2.58974 21.6615 2.10044 19.5193 1.99303C17.3115 1.86772 10.6939 1.86772 8.4861 1.99303C6.34988 2.09447 4.45233 2.58377 2.88298 4.14716C1.31363 5.71054 0.830296 7.60808 0.722888 9.75028C0.597579 11.9581 0.597579 18.5756 0.722888 20.7835C0.824329 22.9257 1.31363 24.8232 2.88298 26.3866C4.45233 27.95 6.34391 28.4393 8.4861 28.5467C10.6939 28.672 17.3115 28.672 19.5193 28.5467C21.6615 28.4452 23.559 27.9559 25.1224 26.3866C26.6858 24.8232 27.1751 22.9257 27.2825 20.7835C27.4078 18.5756 27.4078 11.9641 27.2825 9.75625ZM24.4302 23.1524C23.9648 24.322 23.0638 25.223 21.8882 25.6944C20.1279 26.3926 15.951 26.2314 14.0057 26.2314C12.0604 26.2314 7.87746 26.3866 6.12313 25.6944C4.95357 25.229 4.05254 24.3279 3.58114 23.1524C2.88298 21.3921 3.0441 17.2151 3.0441 15.2699C3.0441 13.3246 2.88895 9.14163 3.58114 7.3873C4.04657 6.21775 4.94761 5.31671 6.12313 4.84531C7.88343 4.14716 12.0604 4.30827 14.0057 4.30827C15.951 4.30827 20.1339 4.15313 21.8882 4.84531C23.0578 5.31075 23.9588 6.21178 24.4302 7.3873C25.1284 9.1476 24.9673 13.3246 24.9673 15.2699C24.9673 17.2151 25.1284 21.3981 24.4302 23.1524Z" fill="#483221"/>
</g>
<defs>
<clipPath id="clip0_191_20">
<rect width="26.7327" height="30.5516" fill="white" transform="translate(0.633789)"/>
</clipPath>
</defs>
</svg>
