<?xml version="1.0" encoding="UTF-8"?>
<!DOCTYPE svg PUBLIC "-//W3C//DTD SVG 1.1//EN" "http://www.w3.org/Graphics/SVG/1.1/DTD/svg11.dtd">
<svg xmlns="http://www.w3.org/2000/svg" version="1.1" width="484px" height="484px" style="shape-rendering:geometricPrecision; text-rendering:geometricPrecision; image-rendering:optimizeQuality; fill-rule:evenodd; clip-rule:evenodd" xmlns:xlink="http://www.w3.org/1999/xlink">
<g><path style="opacity:1" fill="#493322" d="M 146.5,7.5 C 147.035,9.44563 148.368,10.4456 150.5,10.5C 153.903,12.8998 156.57,15.8998 158.5,19.5C 158.427,21.0269 159.094,22.0269 160.5,22.5C 161.338,22.8417 161.672,23.5084 161.5,24.5C 161.41,27.1522 162.076,29.4855 163.5,31.5C 164.494,41.6532 164.828,51.9865 164.5,62.5C 213.664,63.4989 262.997,63.8322 312.5,63.5C 312.5,52.5 312.5,41.5 312.5,30.5C 312.69,27.145 313.69,24.145 315.5,21.5C 316.906,21.0269 317.573,20.0269 317.5,18.5C 319.262,17.7377 320.262,16.4044 320.5,14.5C 322.637,11.027 325.637,8.69363 329.5,7.5C 331.027,7.57298 332.027,6.90632 332.5,5.5C 342.534,1.46738 352.534,1.63405 362.5,6C 364.747,7.27747 366.747,8.77747 368.5,10.5C 368.833,11.5 369.5,12.1667 370.5,12.5C 370.833,12.5 371.167,12.5 371.5,12.5C 371.427,14.0269 372.094,15.0269 373.5,15.5C 376.502,18.1612 378.502,21.4945 379.5,25.5C 379.41,28.1522 380.076,30.4855 381.5,32.5C 381.5,33.1667 381.5,33.8333 381.5,34.5C 381.5,44.1667 381.5,53.8333 381.5,63.5C 401.833,63.5 422.167,63.5 442.5,63.5C 450.025,64.0971 456.359,67.0971 461.5,72.5C 461.427,74.0269 462.094,75.0269 463.5,75.5C 464.167,75.5 464.5,75.8333 464.5,76.5C 464.738,78.4044 465.738,79.7377 467.5,80.5C 469.656,83.4374 471.156,86.7708 472,90.5C 472.667,210.833 472.667,331.167 472,451.5C 468.056,466.445 458.556,475.611 443.5,479C 308.833,479.667 174.167,479.667 39.5,479C 35.3812,478.356 31.7145,476.856 28.5,474.5C 28.0269,473.094 27.0269,472.427 25.5,472.5C 25.0269,471.094 24.0269,470.427 22.5,470.5C 15.0393,464.332 10.8726,456.332 10,446.5C 9.17063,328.793 9.3373,211.127 10.5,93.5C 11.9238,91.4855 12.5905,89.1522 12.5,86.5C 12.7549,84.0326 13.7549,82.0326 15.5,80.5C 16.9063,80.0269 17.573,79.0269 17.5,77.5C 17.5,76.8333 17.8333,76.5 18.5,76.5C 19.9063,76.0269 20.573,75.0269 20.5,73.5C 22.4044,73.2624 23.7377,72.2624 24.5,70.5C 28.6152,66.4527 33.6152,64.1194 39.5,63.5C 57.1667,63.5 74.8333,63.5 92.5,63.5C 92.5,52.8333 92.5,42.1667 92.5,31.5C 93.9238,29.4855 94.5905,27.1522 94.5,24.5C 102.526,8.48379 115.526,1.31712 133.5,3C 138.172,3.74482 142.506,5.24482 146.5,7.5 Z M 66.5,449.5 C 65.7095,448.599 64.7095,447.932 63.5,447.5C 57.486,443.831 53.6526,438.498 52,431.5C 51.3333,347.833 51.3333,264.167 52,180.5C 54.7659,171.402 60.5992,165.235 69.5,162C 183.5,161.333 297.5,161.333 411.5,162C 422.803,165.301 428.97,172.801 430,184.5C 430.667,265.833 430.667,347.167 430,428.5C 427.941,440.892 420.774,448.392 408.5,451C 296.833,451.667 185.167,451.667 73.5,451C 71.1341,450.56 68.8008,450.06 66.5,449.5 Z"/></g>
<g><path style="opacity:0.733" fill="#aba098" d="M 332.5,5.5 C 332.027,6.90632 331.027,7.57298 329.5,7.5C 329.973,6.09368 330.973,5.42702 332.5,5.5 Z"/></g>
<g><path style="opacity:0.941" fill="#a5988f" d="M 146.5,7.5 C 148.23,8.02561 149.564,9.02561 150.5,10.5C 148.368,10.4456 147.035,9.44563 146.5,7.5 Z"/></g>
<g><path style="opacity:0.008" fill="#cac3be" d="M 368.5,10.5 C 369.833,10.5 370.5,11.1667 370.5,12.5C 369.5,12.1667 368.833,11.5 368.5,10.5 Z"/></g>
<g><path style="opacity:0.627" fill="#bcb4ad" d="M 371.5,12.5 C 372.906,12.9731 373.573,13.9731 373.5,15.5C 372.094,15.0269 371.427,14.0269 371.5,12.5 Z"/></g>
<g><path style="opacity:0.906" fill="#a0938a" d="M 320.5,14.5 C 320.262,16.4044 319.262,17.7377 317.5,18.5C 317.738,16.5956 318.738,15.2623 320.5,14.5 Z"/></g>
<g><path style="opacity:0.435" fill="#b7aea7" d="M 317.5,18.5 C 317.573,20.0269 316.906,21.0269 315.5,21.5C 315.427,19.9731 316.094,18.9731 317.5,18.5 Z"/></g>
<g><path style="opacity:0.49" fill="#aba198" d="M 158.5,19.5 C 159.906,19.9731 160.573,20.9731 160.5,22.5C 159.094,22.0269 158.427,21.0269 158.5,19.5 Z"/></g>
<g><path style="opacity:0.976" fill="#918277" d="M 94.5,24.5 C 94.5905,27.1522 93.9238,29.4855 92.5,31.5C 92.4095,28.8478 93.0762,26.5145 94.5,24.5 Z"/></g>
<g><path style="opacity:0.98" fill="#8d7e73" d="M 161.5,24.5 C 162.924,26.5145 163.59,28.8478 163.5,31.5C 162.076,29.4855 161.41,27.1522 161.5,24.5 Z"/></g>
<g><path style="opacity:0.647" fill="#9b8e84" d="M 379.5,25.5 C 380.924,27.5145 381.59,29.8478 381.5,32.5C 380.076,30.4855 379.41,28.1522 379.5,25.5 Z"/></g>
<g><path style="opacity:0.496" fill="#a59b92" d="M 92.5,31.5 C 92.5,42.1667 92.5,52.8333 92.5,63.5C 74.8333,63.5 57.1667,63.5 39.5,63.5C 56.6586,62.5033 73.992,62.17 91.5,62.5C 91.1724,51.9865 91.5058,41.6532 92.5,31.5 Z"/></g>
<g><path style="opacity:0.495" fill="#a59b92" d="M 312.5,30.5 C 312.5,41.5 312.5,52.5 312.5,63.5C 262.997,63.8322 213.664,63.4989 164.5,62.5C 213.5,62.5 262.5,62.5 311.5,62.5C 311.172,51.6536 311.506,40.9869 312.5,30.5 Z"/></g>
<g><path style="opacity:0.496" fill="#bab1ab" d="M 381.5,34.5 C 382.494,43.6517 382.827,52.985 382.5,62.5C 402.674,62.1695 422.674,62.5029 442.5,63.5C 422.167,63.5 401.833,63.5 381.5,63.5C 381.5,53.8333 381.5,44.1667 381.5,34.5 Z"/></g>
<g><path style="opacity:0.729" fill="#a3988f" d="M 24.5,70.5 C 23.7377,72.2624 22.4044,73.2624 20.5,73.5C 21.2623,71.7376 22.5956,70.7376 24.5,70.5 Z"/></g>
<g><path style="opacity:0.671" fill="#b5aca5" d="M 461.5,72.5 C 462.906,72.9731 463.573,73.9731 463.5,75.5C 462.094,75.0269 461.427,74.0269 461.5,72.5 Z"/></g>
<g><path style="opacity:0.773" fill="#a69b92" d="M 20.5,73.5 C 20.573,75.0269 19.9063,76.0269 18.5,76.5C 18.427,74.9731 19.0937,73.9731 20.5,73.5 Z"/></g>
<g><path style="opacity:0.894" fill="#a0938a" d="M 464.5,76.5 C 466.262,77.2623 467.262,78.5956 467.5,80.5C 465.738,79.7377 464.738,78.4044 464.5,76.5 Z"/></g>
<g><path style="opacity:0.624" fill="#9b8e84" d="M 17.5,77.5 C 17.573,79.0269 16.9063,80.0269 15.5,80.5C 15.427,78.9731 16.0937,77.9731 17.5,77.5 Z"/></g>
<g><path style="opacity:0.686" fill="#988b81" d="M 12.5,86.5 C 12.5905,89.1522 11.9238,91.4855 10.5,93.5C 10.4095,90.8478 11.0762,88.5145 12.5,86.5 Z"/></g>
<g><path style="opacity:0.902" fill="#a4988e" d="M 63.5,447.5 C 64.7095,447.932 65.7095,448.599 66.5,449.5C 64.8212,449.715 63.8212,449.048 63.5,447.5 Z"/></g>
<g><path style="opacity:0.49" fill="#b5aca5" d="M 22.5,470.5 C 24.0269,470.427 25.0269,471.094 25.5,472.5C 23.9731,472.573 22.9731,471.906 22.5,470.5 Z"/></g>
<g><path style="opacity:0.506" fill="#a89c94" d="M 25.5,472.5 C 27.0269,472.427 28.0269,473.094 28.5,474.5C 26.9731,474.573 25.9731,473.906 25.5,472.5 Z"/></g>
</svg>
