<?xml version="1.0" encoding="UTF-8"?>
<!DOCTYPE svg PUBLIC "-//W3C//DTD SVG 1.1//EN" "http://www.w3.org/Graphics/SVG/1.1/DTD/svg11.dtd">
<svg xmlns="http://www.w3.org/2000/svg" version="1.1" width="480px" height="418px" style="shape-rendering:geometricPrecision; text-rendering:geometricPrecision; image-rendering:optimizeQuality; fill-rule:evenodd; clip-rule:evenodd" xmlns:xlink="http://www.w3.org/1999/xlink">
<g><path style="opacity:0.25" fill="#fbfbfa" d="M 17.5,43.5 C 14.2622,44.7375 11.2622,46.4042 8.5,48.5C 8.18897,47.5222 7.5223,46.8555 6.5,46.5C 5.54896,47.3256 4.54896,47.4922 3.5,47C 5.97206,45.907 7.97206,44.2403 9.5,42C 10.8333,41.8333 12.1667,41.6667 13.5,41.5C 15.3328,41.5854 16.6661,42.2521 17.5,43.5 Z"/></g>
<g><path style="opacity:1" fill="#483222" d="M 17.5,43.5 C 167.167,43.3333 316.834,43.5 466.5,44C 468.452,44.3661 470.118,45.1995 471.5,46.5C 471.738,48.4044 472.738,49.7377 474.5,50.5C 475.558,51.6002 476.392,52.9336 477,54.5C 477.833,71.5098 477.666,88.5098 476.5,105.5C 399.5,151 322.5,196.5 245.5,242C 243.956,243.187 242.289,243.52 240.5,243C 234.938,240.059 229.605,236.892 224.5,233.5C 224.027,232.094 223.027,231.427 221.5,231.5C 215.835,229.003 210.502,226.003 205.5,222.5C 205.027,221.094 204.027,220.427 202.5,220.5C 192.833,215.669 183.5,210.336 174.5,204.5C 174.027,203.094 173.027,202.427 171.5,202.5C 165.17,199.67 159.17,196.337 153.5,192.5C 153.027,191.094 152.027,190.427 150.5,190.5C 142.572,186.559 134.905,182.226 127.5,177.5C 127.027,176.094 126.027,175.427 124.5,175.5C 116.572,171.559 108.905,167.226 101.5,162.5C 101.027,161.094 100.027,160.427 98.5,160.5C 90.572,156.559 82.9053,152.226 75.5,147.5C 75.0269,146.094 74.0269,145.427 72.5,145.5C 70.847,145.34 69.5137,144.674 68.5,143.5C 68.0269,142.094 67.0269,141.427 65.5,141.5C 59.835,139.003 54.5016,136.003 49.5,132.5C 49.0269,131.094 48.0269,130.427 46.5,130.5C 36.1675,125.336 26.1675,119.669 16.5,113.5C 16.0269,112.094 15.0269,111.427 13.5,111.5C 11.847,111.34 10.5137,110.674 9.5,109.5C 9.02694,108.094 8.02694,107.427 6.5,107.5C 5.51432,89.9101 5.18098,72.2434 5.5,54.5C 5.65353,52.0301 6.65353,50.0301 8.5,48.5C 11.2622,46.4042 14.2622,44.7375 17.5,43.5 Z"/></g>
<g><path style="opacity:0.631" fill="#bab2ab" d="M 471.5,46.5 C 473.262,47.2623 474.262,48.5956 474.5,50.5C 472.738,49.7377 471.738,48.4044 471.5,46.5 Z"/></g>
<g><path style="opacity:0.668" fill="#8b7c72" d="M 5.5,54.5 C 5.18098,72.2434 5.51432,89.9101 6.5,107.5C 5.16845,99.0262 4.50179,90.1929 4.5,81C 4.50022,71.9936 4.83355,63.1602 5.5,54.5 Z"/></g>
<g><path style="opacity:0.349" fill="#bcb3ad" d="M 6.5,107.5 C 8.02694,107.427 9.02694,108.094 9.5,109.5C 7.97306,109.573 6.97306,108.906 6.5,107.5 Z"/></g>
<g><path style="opacity:0.384" fill="#b6ada6" d="M 13.5,111.5 C 15.0269,111.427 16.0269,112.094 16.5,113.5C 14.9731,113.573 13.9731,112.906 13.5,111.5 Z"/></g>
<g><path style="opacity:0.416" fill="#b3a8a1" d="M 46.5,130.5 C 48.0269,130.427 49.0269,131.094 49.5,132.5C 47.9731,132.573 46.9731,131.906 46.5,130.5 Z"/></g>
<g><path style="opacity:0.273" fill="#c9c2bd" d="M 476.5,365.5 C 477.164,290.159 476.497,215.159 474.5,140.5C 475.172,139.733 476.005,139.066 477,138.5C 477.832,214.334 477.666,290.001 476.5,365.5 Z"/></g>
<g><path style="opacity:1" fill="#493322" d="M 474.5,140.5 C 476.497,215.159 477.164,290.159 476.5,365.5C 475.092,371.409 471.426,375.243 465.5,377C 315.833,377.667 166.167,377.667 16.5,377C 11.0164,375.349 7.34975,371.849 5.5,366.5C 4.83637,291.493 5.50304,216.826 7.5,142.5C 9.4832,143.471 11.4832,144.471 13.5,145.5C 13.8212,147.048 14.8212,147.715 16.5,147.5C 17.8333,148.167 19.1667,148.833 20.5,149.5C 20.8212,151.048 21.8212,151.715 23.5,151.5C 24.8333,152.167 26.1667,152.833 27.5,153.5C 27.8212,155.048 28.8212,155.715 30.5,155.5C 33.6612,156.913 36.6612,158.58 39.5,160.5C 39.8212,162.048 40.8212,162.715 42.5,162.5C 43.8333,163.167 45.1667,163.833 46.5,164.5C 46.8212,166.048 47.8212,166.715 49.5,166.5C 50.8333,167.167 52.1667,167.833 53.5,168.5C 53.8212,170.048 54.8212,170.715 56.5,170.5C 59.6612,171.913 62.6612,173.58 65.5,175.5C 65.8212,177.048 66.8212,177.715 68.5,177.5C 69.8333,178.167 71.1667,178.833 72.5,179.5C 72.8212,181.048 73.8212,181.715 75.5,181.5C 80.8333,184.5 86.1667,187.5 91.5,190.5C 91.8212,192.048 92.8212,192.715 94.5,192.5C 95.8333,193.167 97.1667,193.833 98.5,194.5C 98.8212,196.048 99.8212,196.715 101.5,196.5C 106.833,199.5 112.167,202.5 117.5,205.5C 117.821,207.048 118.821,207.715 120.5,207.5C 121.833,208.167 123.167,208.833 124.5,209.5C 124.821,211.048 125.821,211.715 127.5,211.5C 130.661,212.913 133.661,214.58 136.5,216.5C 136.821,218.048 137.821,218.715 139.5,218.5C 140.833,219.167 142.167,219.833 143.5,220.5C 143.821,222.048 144.821,222.715 146.5,222.5C 147.833,223.167 149.167,223.833 150.5,224.5C 150.821,226.048 151.821,226.715 153.5,226.5C 156.661,227.913 159.661,229.58 162.5,231.5C 162.821,233.048 163.821,233.715 165.5,233.5C 169.327,235.246 172.993,237.246 176.5,239.5C 176.821,241.048 177.821,241.715 179.5,241.5C 180.833,242.167 182.167,242.833 183.5,243.5C 183.821,245.048 184.821,245.715 186.5,245.5C 189.661,246.913 192.661,248.58 195.5,250.5C 195.821,252.048 196.821,252.715 198.5,252.5C 199.833,253.167 201.167,253.833 202.5,254.5C 202.821,256.048 203.821,256.715 205.5,256.5C 208.661,257.913 211.661,259.58 214.5,261.5C 214.821,263.048 215.821,263.715 217.5,263.5C 218.833,264.167 220.167,264.833 221.5,265.5C 221.821,267.048 222.821,267.715 224.5,267.5C 229.997,271.247 235.997,273.914 242.5,275.5C 246.72,274.209 250.72,272.542 254.5,270.5C 256.027,270.573 257.027,269.906 257.5,268.5C 261.833,265.331 266.5,262.664 271.5,260.5C 273.027,260.573 274.027,259.906 274.5,258.5C 284.662,252.251 294.995,246.251 305.5,240.5C 307.027,240.573 308.027,239.906 308.5,238.5C 308.842,237.662 309.508,237.328 310.5,237.5C 312.027,237.573 313.027,236.906 313.5,235.5C 316.24,233.44 319.24,231.774 322.5,230.5C 324.027,230.573 325.027,229.906 325.5,228.5C 325.842,227.662 326.508,227.328 327.5,227.5C 329.027,227.573 330.027,226.906 330.5,225.5C 333.24,223.44 336.24,221.774 339.5,220.5C 341.027,220.573 342.027,219.906 342.5,218.5C 342.842,217.662 343.508,217.328 344.5,217.5C 346.027,217.573 347.027,216.906 347.5,215.5C 351.833,212.331 356.5,209.664 361.5,207.5C 363.027,207.573 364.027,206.906 364.5,205.5C 368.833,202.331 373.5,199.664 378.5,197.5C 380.027,197.573 381.027,196.906 381.5,195.5C 385.833,192.331 390.5,189.664 395.5,187.5C 397.027,187.573 398.027,186.906 398.5,185.5C 402.833,182.331 407.5,179.664 412.5,177.5C 414.027,177.573 415.027,176.906 415.5,175.5C 418.24,173.44 421.24,171.774 424.5,170.5C 426.027,170.573 427.027,169.906 427.5,168.5C 427.842,167.662 428.508,167.328 429.5,167.5C 431.027,167.573 432.027,166.906 432.5,165.5C 438.57,161.442 444.903,157.775 451.5,154.5C 453.027,154.573 454.027,153.906 454.5,152.5C 454.842,151.662 455.508,151.328 456.5,151.5C 458.027,151.573 459.027,150.906 459.5,149.5C 464.299,146.263 469.299,143.263 474.5,140.5 Z"/></g>
<g><path style="opacity:0.675" fill="#887a6f" d="M 7.5,142.5 C 5.50304,216.826 4.83637,291.493 5.5,366.5C 4.33444,291.334 4.16777,216.001 5,140.5C 5.9947,141.066 6.82803,141.733 7.5,142.5 Z"/></g>
<g><path style="opacity:0.376" fill="#b8afa8" d="M 65.5,141.5 C 67.0269,141.427 68.0269,142.094 68.5,143.5C 66.9731,143.573 65.9731,142.906 65.5,141.5 Z"/></g>
<g><path style="opacity:0.965" fill="#9d8f85" d="M 13.5,145.5 C 14.7095,145.932 15.7095,146.599 16.5,147.5C 14.8212,147.715 13.8212,147.048 13.5,145.5 Z"/></g>
<g><path style="opacity:0.412" fill="#b3a9a2" d="M 72.5,145.5 C 74.0269,145.427 75.0269,146.094 75.5,147.5C 73.9731,147.573 72.9731,146.906 72.5,145.5 Z"/></g>
<g><path style="opacity:0.949" fill="#a1938a" d="M 20.5,149.5 C 21.7095,149.932 22.7095,150.599 23.5,151.5C 21.8212,151.715 20.8212,151.048 20.5,149.5 Z"/></g>
<g><path style="opacity:0.812" fill="#a3978e" d="M 459.5,149.5 C 459.027,150.906 458.027,151.573 456.5,151.5C 456.973,150.094 457.973,149.427 459.5,149.5 Z"/></g>
<g><path style="opacity:0.843" fill="#9e9188" d="M 454.5,152.5 C 454.027,153.906 453.027,154.573 451.5,154.5C 451.973,153.094 452.973,152.427 454.5,152.5 Z"/></g>
<g><path style="opacity:0.929" fill="#a5988f" d="M 27.5,153.5 C 28.7095,153.932 29.7095,154.599 30.5,155.5C 28.8212,155.715 27.8212,155.048 27.5,153.5 Z"/></g>
<g><path style="opacity:0.973" fill="#9e9086" d="M 39.5,160.5 C 40.7095,160.932 41.7095,161.599 42.5,162.5C 40.8212,162.715 39.8212,162.048 39.5,160.5 Z"/></g>
<g><path style="opacity:0.408" fill="#b4aaa2" d="M 98.5,160.5 C 100.027,160.427 101.027,161.094 101.5,162.5C 99.9731,162.573 98.9731,161.906 98.5,160.5 Z"/></g>
<g><path style="opacity:0.953" fill="#a1948b" d="M 46.5,164.5 C 47.7095,164.932 48.7095,165.599 49.5,166.5C 47.8212,166.715 46.8212,166.048 46.5,164.5 Z"/></g>
<g><path style="opacity:0.804" fill="#a59990" d="M 432.5,165.5 C 432.027,166.906 431.027,167.573 429.5,167.5C 429.973,166.094 430.973,165.427 432.5,165.5 Z"/></g>
<g><path style="opacity:0.922" fill="#a69991" d="M 53.5,168.5 C 54.7095,168.932 55.7095,169.599 56.5,170.5C 54.8212,170.715 53.8212,170.048 53.5,168.5 Z"/></g>
<g><path style="opacity:0.827" fill="#9f9389" d="M 427.5,168.5 C 427.027,169.906 426.027,170.573 424.5,170.5C 424.973,169.094 425.973,168.427 427.5,168.5 Z"/></g>
<g><path style="opacity:0.965" fill="#9f9188" d="M 65.5,175.5 C 66.7095,175.932 67.7095,176.599 68.5,177.5C 66.8212,177.715 65.8212,177.048 65.5,175.5 Z"/></g>
<g><path style="opacity:0.4" fill="#b4aaa3" d="M 124.5,175.5 C 126.027,175.427 127.027,176.094 127.5,177.5C 125.973,177.573 124.973,176.906 124.5,175.5 Z"/></g>
<g><path style="opacity:0.831" fill="#a0948a" d="M 415.5,175.5 C 415.027,176.906 414.027,177.573 412.5,177.5C 412.973,176.094 413.973,175.427 415.5,175.5 Z"/></g>
<g><path style="opacity:0.941" fill="#a2958c" d="M 72.5,179.5 C 73.7095,179.932 74.7095,180.599 75.5,181.5C 73.8212,181.715 72.8212,181.048 72.5,179.5 Z"/></g>
<g><path style="opacity:0.82" fill="#a2968d" d="M 398.5,185.5 C 398.027,186.906 397.027,187.573 395.5,187.5C 395.973,186.094 396.973,185.427 398.5,185.5 Z"/></g>
<g><path style="opacity:0.961" fill="#9f9288" d="M 91.5,190.5 C 92.7095,190.932 93.7095,191.599 94.5,192.5C 92.8212,192.715 91.8212,192.048 91.5,190.5 Z"/></g>
<g><path style="opacity:0.396" fill="#b5aba4" d="M 150.5,190.5 C 152.027,190.427 153.027,191.094 153.5,192.5C 151.973,192.573 150.973,191.906 150.5,190.5 Z"/></g>
<g><path style="opacity:0.941" fill="#a3968d" d="M 98.5,194.5 C 99.7095,194.932 100.71,195.599 101.5,196.5C 99.8212,196.715 98.8212,196.048 98.5,194.5 Z"/></g>
<g><path style="opacity:0.816" fill="#a3978e" d="M 381.5,195.5 C 381.027,196.906 380.027,197.573 378.5,197.5C 378.973,196.094 379.973,195.427 381.5,195.5 Z"/></g>
<g><path style="opacity:0.42" fill="#b1a79f" d="M 171.5,202.5 C 173.027,202.427 174.027,203.094 174.5,204.5C 172.973,204.573 171.973,203.906 171.5,202.5 Z"/></g>
<g><path style="opacity:0.953" fill="#a1938a" d="M 117.5,205.5 C 118.71,205.932 119.71,206.599 120.5,207.5C 118.821,207.715 117.821,207.048 117.5,205.5 Z"/></g>
<g><path style="opacity:0.808" fill="#a59990" d="M 364.5,205.5 C 364.027,206.906 363.027,207.573 361.5,207.5C 361.973,206.094 362.973,205.427 364.5,205.5 Z"/></g>
<g><path style="opacity:0.937" fill="#a4978e" d="M 124.5,209.5 C 125.71,209.932 126.71,210.599 127.5,211.5C 125.821,211.715 124.821,211.048 124.5,209.5 Z"/></g>
<g><path style="opacity:0.804" fill="#a59991" d="M 347.5,215.5 C 347.027,216.906 346.027,217.573 344.5,217.5C 344.973,216.094 345.973,215.427 347.5,215.5 Z"/></g>
<g><path style="opacity:0.969" fill="#9d8f85" d="M 136.5,216.5 C 137.71,216.932 138.71,217.599 139.5,218.5C 137.821,218.715 136.821,218.048 136.5,216.5 Z"/></g>
<g><path style="opacity:0.847" fill="#9d9086" d="M 342.5,218.5 C 342.027,219.906 341.027,220.573 339.5,220.5C 339.973,219.094 340.973,218.427 342.5,218.5 Z"/></g>
<g><path style="opacity:0.957" fill="#a1948a" d="M 143.5,220.5 C 144.71,220.932 145.71,221.599 146.5,222.5C 144.821,222.715 143.821,222.048 143.5,220.5 Z"/></g>
<g><path style="opacity:0.392" fill="#b5aca4" d="M 202.5,220.5 C 204.027,220.427 205.027,221.094 205.5,222.5C 203.973,222.573 202.973,221.906 202.5,220.5 Z"/></g>
<g><path style="opacity:0.941" fill="#a5988f" d="M 150.5,224.5 C 151.71,224.932 152.71,225.599 153.5,226.5C 151.821,226.715 150.821,226.048 150.5,224.5 Z"/></g>
<g><path style="opacity:0.812" fill="#a69a91" d="M 330.5,225.5 C 330.027,226.906 329.027,227.573 327.5,227.5C 327.973,226.094 328.973,225.427 330.5,225.5 Z"/></g>
<g><path style="opacity:0.847" fill="#9e9188" d="M 325.5,228.5 C 325.027,229.906 324.027,230.573 322.5,230.5C 322.973,229.094 323.973,228.427 325.5,228.5 Z"/></g>
<g><path style="opacity:0.965" fill="#9e9086" d="M 162.5,231.5 C 163.71,231.932 164.71,232.599 165.5,233.5C 163.821,233.715 162.821,233.048 162.5,231.5 Z"/></g>
<g><path style="opacity:0.408" fill="#b3a9a2" d="M 221.5,231.5 C 223.027,231.427 224.027,232.094 224.5,233.5C 222.973,233.573 221.973,232.906 221.5,231.5 Z"/></g>
<g><path style="opacity:0.788" fill="#a79c93" d="M 313.5,235.5 C 313.027,236.906 312.027,237.573 310.5,237.5C 310.973,236.094 311.973,235.427 313.5,235.5 Z"/></g>
<g><path style="opacity:0.835" fill="#9f9389" d="M 308.5,238.5 C 308.027,239.906 307.027,240.573 305.5,240.5C 305.973,239.094 306.973,238.427 308.5,238.5 Z"/></g>
<g><path style="opacity:0.965" fill="#9e9086" d="M 176.5,239.5 C 177.71,239.932 178.71,240.599 179.5,241.5C 177.821,241.715 176.821,241.048 176.5,239.5 Z"/></g>
<g><path style="opacity:0.941" fill="#a3958c" d="M 183.5,243.5 C 184.71,243.932 185.71,244.599 186.5,245.5C 184.821,245.715 183.821,245.048 183.5,243.5 Z"/></g>
<g><path style="opacity:0.98" fill="#9e9086" d="M 195.5,250.5 C 196.71,250.932 197.71,251.599 198.5,252.5C 196.821,252.715 195.821,252.048 195.5,250.5 Z"/></g>
<g><path style="opacity:0.945" fill="#a3958c" d="M 202.5,254.5 C 203.71,254.932 204.71,255.599 205.5,256.5C 203.821,256.715 202.821,256.048 202.5,254.5 Z"/></g>
<g><path style="opacity:0.816" fill="#a2968c" d="M 274.5,258.5 C 274.027,259.906 273.027,260.573 271.5,260.5C 271.973,259.094 272.973,258.427 274.5,258.5 Z"/></g>
<g><path style="opacity:0.961" fill="#9e9086" d="M 214.5,261.5 C 215.71,261.932 216.71,262.599 217.5,263.5C 215.821,263.715 214.821,263.048 214.5,261.5 Z"/></g>
<g><path style="opacity:0.941" fill="#a3958c" d="M 221.5,265.5 C 222.71,265.932 223.71,266.599 224.5,267.5C 222.821,267.715 221.821,267.048 221.5,265.5 Z"/></g>
<g><path style="opacity:0.812" fill="#a2968d" d="M 257.5,268.5 C 257.027,269.906 256.027,270.573 254.5,270.5C 254.973,269.094 255.973,268.427 257.5,268.5 Z"/></g>
</svg>
