<?xml version="1.0" encoding="UTF-8"?>
<!DOCTYPE svg PUBLIC "-//W3C//DTD SVG 1.1//EN" "http://www.w3.org/Graphics/SVG/1.1/DTD/svg11.dtd">
<svg xmlns="http://www.w3.org/2000/svg" version="1.1" width="499px" height="500px" style="shape-rendering:geometricPrecision; text-rendering:geometricPrecision; image-rendering:optimizeQuality; fill-rule:evenodd; clip-rule:evenodd" xmlns:xlink="http://www.w3.org/1999/xlink">
<g><path style="opacity:0.435" fill="#bcb3ad" d="M 266.5,30.5 C 260.987,28.7059 255.32,27.7059 249.5,27.5C 243.983,27.6763 238.65,28.6763 233.5,30.5C 238.423,27.257 243.923,25.9236 250,26.5C 256.077,25.9236 261.577,27.257 266.5,30.5 Z"/></g>
<g><path style="opacity:1" fill="#483221" d="M 266.5,30.5 C 269.4,31.4432 271.733,33.1099 273.5,35.5C 275.569,38.5725 278.236,40.9059 281.5,42.5C 287.167,47.5 292.5,52.8333 297.5,58.5C 299.9,61.9031 302.9,64.5698 306.5,66.5C 312.167,71.5 317.5,76.8333 322.5,82.5C 324.9,85.9031 327.9,88.5698 331.5,90.5C 337.167,95.5 342.5,100.833 347.5,106.5C 349.9,109.903 352.9,112.57 356.5,114.5C 356.343,115.873 356.51,117.207 357,118.5C 357.986,117.829 359.153,117.829 360.5,118.5C 364.833,122.167 368.833,126.167 372.5,130.5C 374.9,133.903 377.9,136.57 381.5,138.5C 381.5,139.833 381.5,141.167 381.5,142.5C 383.216,142.629 384.883,142.962 386.5,143.5C 390.167,146.5 393.5,149.833 396.5,153.5C 399.563,157.566 403.229,160.899 407.5,163.5C 408.5,166.5 410.5,168.5 413.5,169.5C 416.833,172.167 419.833,175.167 422.5,178.5C 424.9,181.903 427.9,184.57 431.5,186.5C 431.833,188.833 433.167,190.167 435.5,190.5C 440.167,194.5 444.5,198.833 448.5,203.5C 451.563,207.566 455.229,210.899 459.5,213.5C 464.833,218.167 469.833,223.167 474.5,228.5C 476.9,231.903 479.9,234.57 483.5,236.5C 487.167,239.5 490.5,242.833 493.5,246.5C 494.08,248.749 495.413,250.415 497.5,251.5C 497.833,251.5 498.167,251.5 498.5,251.5C 498.5,255.167 498.5,258.833 498.5,262.5C 498.167,262.5 497.833,262.5 497.5,262.5C 496.326,263.514 495.66,264.847 495.5,266.5C 495.167,267.5 494.5,268.167 493.5,268.5C 492.078,268.709 490.745,269.209 489.5,270C 467.996,270.168 446.663,270.668 425.5,271.5C 425.822,334.529 425.489,397.529 424.5,460.5C 424.573,462.027 423.906,463.027 422.5,463.5C 421.5,463.833 420.833,464.5 420.5,465.5C 419.599,467.727 417.933,468.727 415.5,468.5C 377.5,468.5 339.5,468.5 301.5,468.5C 301.667,429.165 301.5,389.832 301,350.5C 300.623,349.058 299.79,348.058 298.5,347.5C 297.527,347.013 296.527,346.513 295.5,346C 265.5,345.333 235.5,345.333 205.5,346C 203.65,346.69 202.316,347.856 201.5,349.5C 200.501,388.996 200.168,428.663 200.5,468.5C 161.833,468.5 123.167,468.5 84.5,468.5C 83.209,468.737 82.209,468.404 81.5,467.5C 80.7377,465.738 79.4044,464.738 77.5,464.5C 76.9553,462.407 76.122,460.407 75,458.5C 74.5,395.834 74.3333,333.168 74.5,270.5C 52.8333,270.5 31.1667,270.5 9.5,270.5C 8.73769,268.738 7.40435,267.738 5.5,267.5C 3.73758,266.738 2.73758,265.404 2.5,263.5C 1.79287,260.214 1.45954,256.881 1.5,253.5C 1.32842,252.508 1.66175,251.842 2.5,251.5C 3.90632,251.027 4.57298,250.027 4.5,248.5C 5.83333,247.833 6.83333,246.833 7.5,245.5C 13.4422,241.227 18.7756,236.227 23.5,230.5C 26.8333,227.833 29.8333,224.833 32.5,221.5C 38.1082,217.561 43.1082,212.894 47.5,207.5C 50.8333,204.833 53.8333,201.833 56.5,198.5C 56.8333,197.5 57.5,196.833 58.5,196.5C 63.4397,193.23 67.7731,189.23 71.5,184.5C 74.8333,181.833 77.8333,178.833 80.5,175.5C 81.1667,174.167 82.1667,173.167 83.5,172.5C 85.8333,170.833 87.8333,168.833 89.5,166.5C 95.4422,162.227 100.776,157.227 105.5,151.5C 106.402,149.659 107.736,148.326 109.5,147.5C 111.167,146.5 112.5,145.167 113.5,143.5C 117.1,141.57 120.1,138.903 122.5,135.5C 128.5,130.167 134.167,124.5 139.5,118.5C 145.442,114.227 150.776,109.227 155.5,103.5C 158.167,101.5 160.5,99.1667 162.5,96.5C 162.833,95.5 163.5,94.8333 164.5,94.5C 168.1,92.5698 171.1,89.9031 173.5,86.5C 178.833,81.8333 183.833,76.8333 188.5,71.5C 197.112,64.5561 205.112,56.8894 212.5,48.5C 218.108,44.561 223.108,39.8943 227.5,34.5C 229.147,32.6736 231.147,31.3403 233.5,30.5C 238.65,28.6763 243.983,27.6763 249.5,27.5C 255.32,27.7059 260.987,28.7059 266.5,30.5 Z"/></g>
<g><path style="opacity:0.004" fill="#c9c2bd" d="M 273.5,35.5 C 276.764,37.0941 279.431,39.4275 281.5,42.5C 278.236,40.9059 275.569,38.5725 273.5,35.5 Z"/></g>
<g><path style="opacity:0.82" fill="#8c7d72" d="M 227.5,34.5 C 223.108,39.8943 218.108,44.561 212.5,48.5C 216.892,43.1057 221.892,38.439 227.5,34.5 Z"/></g>
<g><path style="opacity:0.008" fill="#c9c2bd" d="M 297.5,58.5 C 301.1,60.4302 304.1,63.0969 306.5,66.5C 302.9,64.5698 299.9,61.9031 297.5,58.5 Z"/></g>
<g><path style="opacity:0.792" fill="#9b8e85" d="M 212.5,48.5 C 205.112,56.8894 197.112,64.5561 188.5,71.5C 195.888,63.1106 203.888,55.4439 212.5,48.5 Z"/></g>
<g><path style="opacity:0.608" fill="#b5aca5" d="M 188.5,71.5 C 183.833,76.8333 178.833,81.8333 173.5,86.5C 173.167,86.5 172.833,86.5 172.5,86.5C 177.224,80.7731 182.558,75.7731 188.5,71.5 Z"/></g>
<g><path style="opacity:0.012" fill="#cbc4bf" d="M 322.5,82.5 C 326.1,84.4302 329.1,87.0969 331.5,90.5C 327.9,88.5698 324.9,85.9031 322.5,82.5 Z"/></g>
<g><path style="opacity:0.851" fill="#88786d" d="M 172.5,86.5 C 172.833,86.5 173.167,86.5 173.5,86.5C 171.1,89.9031 168.1,92.5698 164.5,94.5C 166.833,91.5 169.5,88.8333 172.5,86.5 Z"/></g>
<g><path style="opacity:0.498" fill="#bdb6af" d="M 162.5,96.5 C 160.5,99.1667 158.167,101.5 155.5,103.5C 156.833,100.167 159.167,97.8333 162.5,96.5 Z"/></g>
<g><path style="opacity:0.008" fill="#cdc7c2" d="M 347.5,106.5 C 351.1,108.43 354.1,111.097 356.5,114.5C 352.9,112.57 349.9,109.903 347.5,106.5 Z"/></g>
<g><path style="opacity:0.831" fill="#93857a" d="M 155.5,103.5 C 150.776,109.227 145.442,114.227 139.5,118.5C 144.224,112.773 149.558,107.773 155.5,103.5 Z"/></g>
<g><path style="opacity:1" fill="#837266" d="M 356.5,114.5 C 358.167,115.5 359.5,116.833 360.5,118.5C 359.153,117.829 357.986,117.829 357,118.5C 356.51,117.207 356.343,115.873 356.5,114.5 Z"/></g>
<g><path style="opacity:0.69" fill="#b1a7a0" d="M 139.5,118.5 C 134.167,124.5 128.5,130.167 122.5,135.5C 122.167,135.5 121.833,135.5 121.5,135.5C 126.89,129.108 132.89,123.441 139.5,118.5 Z"/></g>
<g><path style="opacity:0.012" fill="#cfc9c5" d="M 372.5,130.5 C 376.1,132.43 379.1,135.097 381.5,138.5C 377.9,136.57 374.9,133.903 372.5,130.5 Z"/></g>
<g><path style="opacity:0.867" fill="#86766b" d="M 121.5,135.5 C 121.833,135.5 122.167,135.5 122.5,135.5C 120.1,138.903 117.1,141.57 113.5,143.5C 115.833,140.5 118.5,137.833 121.5,135.5 Z"/></g>
<g><path style="opacity:1" fill="#827165" d="M 381.5,138.5 C 383.5,139.833 385.167,141.5 386.5,143.5C 384.883,142.962 383.216,142.629 381.5,142.5C 381.5,141.167 381.5,139.833 381.5,138.5 Z"/></g>
<g><path style="opacity:0.404" fill="#c9c3be" d="M 113.5,143.5 C 112.5,145.167 111.167,146.5 109.5,147.5C 109.833,145.167 111.167,143.833 113.5,143.5 Z"/></g>
<g><path style="opacity:0.004" fill="#d0cac5" d="M 396.5,153.5 C 400.771,156.101 404.437,159.434 407.5,163.5C 403.229,160.899 399.563,157.566 396.5,153.5 Z"/></g>
<g><path style="opacity:0.741" fill="#998c82" d="M 105.5,151.5 C 100.776,157.227 95.4422,162.227 89.5,166.5C 94.2244,160.773 99.5578,155.773 105.5,151.5 Z"/></g>
<g><path style="opacity:0.678" fill="#b3a9a2" d="M 407.5,163.5 C 409.833,165.167 411.833,167.167 413.5,169.5C 410.5,168.5 408.5,166.5 407.5,163.5 Z"/></g>
<g><path style="opacity:0.365" fill="#cdc7c2" d="M 89.5,166.5 C 87.8333,168.833 85.8333,170.833 83.5,172.5C 84.5,169.5 86.5,167.5 89.5,166.5 Z"/></g>
<g><path style="opacity:0.635" fill="#a99e95" d="M 80.5,175.5 C 77.8333,178.833 74.8333,181.833 71.5,184.5C 71.1667,184.5 70.8333,184.5 70.5,184.5C 73.2311,180.766 76.5644,177.766 80.5,175.5 Z"/></g>
<g><path style="opacity:0.008" fill="#cec7c3" d="M 422.5,178.5 C 426.1,180.43 429.1,183.097 431.5,186.5C 427.9,184.57 424.9,181.903 422.5,178.5 Z"/></g>
<g><path style="opacity:0.667" fill="#b5aca5" d="M 431.5,186.5 C 433.167,187.5 434.5,188.833 435.5,190.5C 433.167,190.167 431.833,188.833 431.5,186.5 Z"/></g>
<g><path style="opacity:0.933" fill="#7b6a5d" d="M 70.5,184.5 C 70.8333,184.5 71.1667,184.5 71.5,184.5C 67.7731,189.23 63.4397,193.23 58.5,196.5C 62.1667,192.167 66.1667,188.167 70.5,184.5 Z"/></g>
<g><path style="opacity:0.592" fill="#aea49c" d="M 56.5,198.5 C 53.8333,201.833 50.8333,204.833 47.5,207.5C 47.1667,207.5 46.8333,207.5 46.5,207.5C 49.2311,203.766 52.5644,200.766 56.5,198.5 Z"/></g>
<g><path style="opacity:0.004" fill="#cac3be" d="M 448.5,203.5 C 452.771,206.101 456.437,209.434 459.5,213.5C 455.229,210.899 451.563,207.566 448.5,203.5 Z"/></g>
<g><path style="opacity:0.933" fill="#7d6c5f" d="M 46.5,207.5 C 46.8333,207.5 47.1667,207.5 47.5,207.5C 43.1082,212.894 38.1082,217.561 32.5,221.5C 36.8333,216.5 41.5,211.833 46.5,207.5 Z"/></g>
<g><path style="opacity:0.569" fill="#b3aaa2" d="M 32.5,221.5 C 29.8333,224.833 26.8333,227.833 23.5,230.5C 23.1667,230.5 22.8333,230.5 22.5,230.5C 25.2311,226.766 28.5644,223.766 32.5,221.5 Z"/></g>
<g><path style="opacity:0.008" fill="#ccc5c0" d="M 474.5,228.5 C 478.1,230.43 481.1,233.097 483.5,236.5C 479.9,234.57 476.9,231.903 474.5,228.5 Z"/></g>
<g><path style="opacity:0.914" fill="#806f63" d="M 22.5,230.5 C 22.8333,230.5 23.1667,230.5 23.5,230.5C 18.7756,236.227 13.4422,241.227 7.5,245.5C 12.1667,240.167 17.1667,235.167 22.5,230.5 Z"/></g>
<g><path style="opacity:0.392" fill="#c5bdb8" d="M 7.5,245.5 C 6.83333,246.833 5.83333,247.833 4.5,248.5C 4.5,246.5 5.5,245.5 7.5,245.5 Z"/></g>
<g><path style="opacity:0.4" fill="#b4aaa2" d="M 4.5,248.5 C 4.57298,250.027 3.90632,251.027 2.5,251.5C 2.42702,249.973 3.09368,248.973 4.5,248.5 Z"/></g>
<g><path style="opacity:0.141" fill="#c5bdb7" d="M 493.5,246.5 C 495.587,247.585 496.92,249.251 497.5,251.5C 495.413,250.415 494.08,248.749 493.5,246.5 Z"/></g>
<g><path style="opacity:0.092" fill="#eae7e5" d="M 1.5,253.5 C 1.45954,256.881 1.79287,260.214 2.5,263.5C 1.02769,261.883 0.361027,259.883 0.5,257.5C 0.510839,255.955 0.844172,254.622 1.5,253.5 Z"/></g>
<g><path style="opacity:0.047" fill="#e2dfdc" d="M 497.5,262.5 C 497.771,264.38 497.104,265.713 495.5,266.5C 495.66,264.847 496.326,263.514 497.5,262.5 Z"/></g>
<g><path style="opacity:0.647" fill="#a59991" d="M 5.5,267.5 C 7.40435,267.738 8.73769,268.738 9.5,270.5C 7.59565,270.262 6.26231,269.262 5.5,267.5 Z"/></g>
<g><path style="opacity:0.497" fill="#a39990" d="M 493.5,268.5 C 491.824,270.834 489.491,271.834 486.5,271.5C 466.167,271.5 445.833,271.5 425.5,271.5C 446.663,270.668 467.996,270.168 489.5,270C 490.745,269.209 492.078,268.709 493.5,268.5 Z"/></g>
<g><path style="opacity:0.277" fill="#c9c3be" d="M 9.5,270.5 C 31.1667,270.5 52.8333,270.5 74.5,270.5C 74.3333,333.168 74.5,395.834 75,458.5C 76.122,460.407 76.9553,462.407 77.5,464.5C 75.8639,463.251 74.6972,461.584 74,459.5C 73.5,397.168 73.3333,334.834 73.5,272.5C 53.4972,272.667 33.4972,272.5 13.5,272C 11.9419,271.79 10.6085,271.29 9.5,270.5 Z"/></g>
<g><path style="opacity:0.102" fill="#edebe9" d="M 425.5,271.5 C 445.833,271.5 466.167,271.5 486.5,271.5C 466.674,272.497 446.674,272.83 426.5,272.5C 426.667,334.501 426.5,396.501 426,458.5C 425.722,459.416 425.222,460.082 424.5,460.5C 425.489,397.529 425.822,334.529 425.5,271.5 Z"/></g>
<g><path style="opacity:0.494" fill="#b1a7a0" d="M 298.5,347.5 C 299.79,348.058 300.623,349.058 301,350.5C 301.5,389.832 301.667,429.165 301.5,468.5C 339.5,468.5 377.5,468.5 415.5,468.5C 377.337,469.499 339.004,469.832 300.5,469.5C 300.667,430.499 300.5,391.499 300,352.5C 299.392,350.846 298.892,349.179 298.5,347.5 Z"/></g>
<g><path style="opacity:0.741" fill="#afa49c" d="M 77.5,464.5 C 79.4044,464.738 80.7377,465.738 81.5,467.5C 79.5956,467.262 78.2623,466.262 77.5,464.5 Z"/></g>
<g><path style="opacity:0.035" fill="#cbc4bf" d="M 422.5,463.5 C 422.5,464.833 421.833,465.5 420.5,465.5C 420.833,464.5 421.5,463.833 422.5,463.5 Z"/></g>
<g><path style="opacity:0.259" fill="#dbd6d3" d="M 201.5,349.5 C 201.5,389.5 201.5,429.5 201.5,469.5C 162.33,469.832 123.33,469.499 84.5,468.5C 123.167,468.5 161.833,468.5 200.5,468.5C 200.168,428.663 200.501,388.996 201.5,349.5 Z"/></g>
</svg>
